<svg width="67" height="25" fill="none" xmlns="http://www.w3.org/2000/svg"><path d="M47.218 21.17c.326-4.834 2.701-7.57 6.614-7.616 4.238-.091 6.614 2.463 7.08 7.616 1.816.365 3.912.456 4.75-1.231.699-1.414.28-3.42.28-5.108 0-.593-.373-1.14-.513-1.733-.605-2.28-1.816-3.785-4.238-4.606-2.935-1.049-5.962-2.28-8.477-4.058C47.357.74 41.535-.264 35.247.056c-6.986.364-12.902 2.918-18.444 7.16-2.19 1.687-5.543 1.96-8.43 2.644-2.749.684-5.404 1.368-7.034 3.922C.174 15.606-.617 17.476.64 19.528c1.304 2.144 3.494 1.87 5.59 1.688.558-5.382 2.934-7.799 7.312-7.662 3.82.091 6.102 2.782 6.381 7.616h27.295zm5.45-12.632H36.923c.093-1.733.186-3.512.28-5.427 5.868-.32 10.759 1.277 15.463 5.427zm-17.84-5.564c-.186 2.144-.326 4.013-.512 5.837H19.783c4.332-3.967 9.083-5.791 15.045-5.837z" fill="#1D4076"/><path d="M54.059 25c2.888 0 5.17-2.235 5.123-5.016-.046-2.737-2.422-5.062-5.17-5.017-2.794 0-5.17 2.372-5.123 5.062 0 2.828 2.282 4.97 5.17 4.97zM8.09 19.983c0 2.919 2.142 5.017 5.077 5.017 2.887 0 5.216-2.235 5.216-4.971 0-2.645-2.468-5.062-5.216-5.062-2.842-.046-5.077 2.189-5.077 5.016z" fill="#1D4076"/></svg>