<svg width="19" height="19" fill="none" xmlns="http://www.w3.org/2000/svg"><path fill-rule="evenodd" clip-rule="evenodd" d="M9.769 3.824c.301.226.603.528.904.829C8.94 6.386 7.207 8.043 5.55 9.776l-2.336 2.336c-.226.226-.377.452-.452.678-.301.829-.528 1.733-.754 2.562-.226.678.377 1.205 1.055.98.83-.227 1.658-.453 2.411-.754.302-.15.603-.377.83-.603l6.78-6.78c.15-.152.377-.378.527-.528.302.376.603.678.905 1.055 0 0-.151.15-.226.3-2.487 2.412-4.898 4.898-7.384 7.31-.226.225-.452.376-.678.451-1.658.528-3.39 1.055-5.124 1.507-.301.076-.753.076-.98-.15-.15-.076-.15-.528-.075-.83.453-1.732.98-3.39 1.507-5.123.076-.226.226-.452.377-.678 2.562-2.637 5.124-5.274 7.61-7.986.075.15.15.226.226.301z" fill="#21325E"/><path fill-rule="evenodd" clip-rule="evenodd" d="M4.871 14.598c0-.828-.452-1.13-1.055-1.13 2.562-2.561 5.2-5.198 7.76-7.76.302.301.679.753 1.056 1.13a376.793 376.793 0 00-7.76 7.76zm12.357-8.739l-4.671-4.672C13.46-.244 14.59-.395 15.797.81c.527.528.98 1.055 1.507 1.507 1.507 1.432 1.431 2.185-.076 3.542zm-6.63-3.014c.301-.302.678-.603.98-.904 1.657 1.657 3.239 3.315 4.896 4.972-.3.226-.602.603-.979.905-1.582-1.658-3.24-3.316-4.897-4.973z" fill="#21325E"/></svg>