<svg width="24" height="24" fill="none" xmlns="http://www.w3.org/2000/svg"><mask id="path-1-outside-1" maskUnits="userSpaceOnUse" x="-1" y="-1" width="25" height="25" fill="#000"><path fill="#fff" d="M-1-1h25v25H-1z"/><path fill-rule="evenodd" clip-rule="evenodd" d="M21.912 19.957c.585.588.557 1.564-.029 2.151-.519.521-1.35.491-1.854-.044-.686-.727-1.346-1.455-2.07-2.183-.653-.656-1.255-1.313-1.87-1.97-.637-.68-1.657-.78-2.504-.392-4.82 2.21-8.872.023-10.877-2.706C.123 11.435.51 6.627 3.612 3.508 6.714.52 11.367.13 14.857 2.728c3.398 2.474 4.353 6.442 2.577 10.84-.336.832-.186 1.8.46 2.421a281.812 281.812 0 014.018 3.968zM16.538 9.746c0-3.769-2.973-6.888-6.722-6.888-3.877 0-6.979 2.99-6.979 6.888a6.83 6.83 0 006.85 6.887c3.878 0 6.85-2.99 6.85-6.887z"/></mask><path fill-rule="evenodd" clip-rule="evenodd" d="M21.912 19.957c.585.588.557 1.564-.029 2.151-.519.521-1.35.491-1.854-.044-.686-.727-1.346-1.455-2.07-2.183-.653-.656-1.255-1.313-1.87-1.97-.637-.68-1.657-.78-2.504-.392-4.82 2.21-8.872.023-10.877-2.706C.123 11.435.51 6.627 3.612 3.508 6.714.52 11.367.13 14.857 2.728c3.398 2.474 4.353 6.442 2.577 10.84-.336.832-.186 1.8.46 2.421a281.812 281.812 0 014.018 3.968zM16.538 9.746c0-3.769-2.973-6.888-6.722-6.888-3.877 0-6.979 2.99-6.979 6.888a6.83 6.83 0 006.85 6.887c3.878 0 6.85-2.99 6.85-6.887z" fill="#1D4076"/><path clip-rule="evenodd" d="M21.912 19.957c.585.588.557 1.564-.029 2.151-.519.521-1.35.491-1.854-.044-.686-.727-1.346-1.455-2.07-2.183-.653-.656-1.255-1.313-1.87-1.97-.637-.68-1.657-.78-2.504-.392-4.82 2.21-8.872.023-10.877-2.706C.123 11.435.51 6.627 3.612 3.508 6.714.52 11.367.13 14.857 2.728c3.398 2.474 4.353 6.442 2.577 10.84-.336.832-.186 1.8.46 2.421a281.812 281.812 0 014.018 3.968zM16.538 9.746c0-3.769-2.973-6.888-6.722-6.888-3.877 0-6.979 2.99-6.979 6.888a6.83 6.83 0 006.85 6.887c3.878 0 6.85-2.99 6.85-6.887z" stroke="#1D4076" stroke-width="2" mask="url(#path-1-outside-1)"/></svg>