<svg width="30" height="17" fill="none" xmlns="http://www.w3.org/2000/svg"><g clip-path="url(#clip0)"><path fill-rule="evenodd" clip-rule="evenodd" d="M30 11.637c-.322.43-.643.912-1.018 1.287l-3.375 3.379c-.429.429-.857.858-1.5.59-.536-.215-.536-.805-.536-1.34 0-.108 0-.162-.053-.484-.697 1.341-1.822 1.395-3 1.395-5.947 0-11.893-.054-17.84 0-1.339 0-2.25-.483-2.732-1.716V1.77C.643.322 1.071 0 2.678 0h18.536c1.66 0 2.464.804 2.518 2.467v3.218c.857-.43 1.179-.376 1.821.268l3.858 3.86c.267.269.428.644.642.966-.053.322-.053.59-.053.858zM11.893 1.073H2.625c-.214 0-.482-.054-.59.053-.32.215-.642.483-.857.805-.053.107.268.536.483.697 3.214 2.091 6.428 4.13 9.642 6.22.429.269.697.269 1.125 0 3.215-2.09 6.483-4.129 9.697-6.22.59-.376.59-.912 0-1.287a1.805 1.805 0 00-.91-.268h-9.322zM22.5 14.587c-1.232 0-2.357-.054-3.429 0-2.143.107-2.893-.43-2.785-2.842.053-1.77 0-1.77-1.5-2.628-.161-.108-.483-.108-.697 0-.59.321-1.125.697-1.714 1.072-.375.268-.643.268-1.018 0-.59-.375-1.125-.75-1.768-1.126a.58.58 0 00-.59 0 367.774 367.774 0 00-7.606 4.88c-.161.107-.268.483-.215.644.215.643.75.75 1.34.75h18.75c.535 0 .964-.107 1.232-.75zm2.196-7.884v1.341c0 .75-.107.912-.91.912h-5.411c-.857 0-1.018.16-1.018 1.072v2.414c0 .858.16 1.072 1.071 1.072h5.411c.804 0 .857.107.857.912v1.287l3.268-3.271c1.179-1.18 1.179-1.18 0-2.36-1.018-1.073-2.09-2.145-3.268-3.379zM8.25 8.205C5.893 6.65 3.536 5.202 1.178 3.647v9.116C3.536 11.208 5.893 9.76 8.25 8.205zm8.196.644c.429-.805 1.179-1.02 1.982-.966.536.054 1.125 0 1.661 0h2.41V3.7c-2.41 1.556-4.713 3.003-7.07 4.505.374.215.642.375 1.017.644z" fill="#21325E"/></g><defs><clipPath id="clip0"><path fill="#fff" d="M0 0h30v17H0z"/></clipPath></defs></svg>