<svg width="38" height="38" fill="none" xmlns="http://www.w3.org/2000/svg" xmlns:xlink="http://www.w3.org/1999/xlink"><path fill="#E5E5E5" d="M0 0h38v38H0z"/><path fill="#fff" d="M-1862-138H58V942h-1920z"/><path fill="url(#pattern0)" d="M-1862-138H58V942h-1920z"/><path fill="#5F5F5F" d="M-1862-34.5H58v936h-1920z"/><g clip-path="url(#clip0)"><path fill="#21325E" fill-opacity=".8" d="M-1862-35H58v936h-1920z"/><g filter="url(#filter0_d)"><path fill="#fff" d="M-1862-35H58V71h-1920z"/><rect width="38" height="38" rx="10" fill="#009C41"/><mask id="path-6-outside-1" maskUnits="userSpaceOnUse" x="11" y="20" width="17" height="8" fill="#000"><path fill="#fff" d="M11 20h17v8H11z"/><path d="M12 25.003c.155-.515.246-1.063.476-1.535.758-1.557 1.98-2.386 3.628-2.464.366-.018.547.134.57.44.022.318-.152.514-.526.538-1.365.087-2.353.785-2.924 2.107-.16.367-.229.79-.275 1.199-.058.525.129.712.622.712 3.176.002 6.351.002 9.526.002.789 0 1.577.001 2.365-.002.45-.002.615-.192.6-.678-.054-1.706-1.388-3.192-2.977-3.32a3.34 3.34 0 01-.265-.022c-.346-.043-.515-.229-.492-.537.022-.295.198-.442.535-.443 1.839-.01 3.561 1.448 4.001 3.39.047.204.091.409.136.613v.713c-.159.685-.563 1.11-1.2 1.284H13.2c-.637-.174-1.04-.599-1.2-1.284v-.713z"/></mask><path d="M12 25.003c.155-.515.246-1.063.476-1.535.758-1.557 1.98-2.386 3.628-2.464.366-.018.547.134.57.44.022.318-.152.514-.526.538-1.365.087-2.353.785-2.924 2.107-.16.367-.229.79-.275 1.199-.058.525.129.712.622.712 3.176.002 6.351.002 9.526.002.789 0 1.577.001 2.365-.002.45-.002.615-.192.6-.678-.054-1.706-1.388-3.192-2.977-3.32a3.34 3.34 0 01-.265-.022c-.346-.043-.515-.229-.492-.537.022-.295.198-.442.535-.443 1.839-.01 3.561 1.448 4.001 3.39.047.204.091.409.136.613v.713c-.159.685-.563 1.11-1.2 1.284H13.2c-.637-.174-1.04-.599-1.2-1.284v-.713z" fill="#fff"/><path d="M12 25.003c.155-.515.246-1.063.476-1.535.758-1.557 1.98-2.386 3.628-2.464.366-.018.547.134.57.44.022.318-.152.514-.526.538-1.365.087-2.353.785-2.924 2.107-.16.367-.229.79-.275 1.199-.058.525.129.712.622.712 3.176.002 6.351.002 9.526.002.789 0 1.577.001 2.365-.002.45-.002.615-.192.6-.678-.054-1.706-1.388-3.192-2.977-3.32a3.34 3.34 0 01-.265-.022c-.346-.043-.515-.229-.492-.537.022-.295.198-.442.535-.443 1.839-.01 3.561 1.448 4.001 3.39.047.204.091.409.136.613v.713c-.159.685-.563 1.11-1.2 1.284H13.2c-.637-.174-1.04-.599-1.2-1.284v-.713z" stroke="#fff" stroke-width=".4" mask="url(#path-6-outside-1)"/><mask id="path-7-outside-2" maskUnits="userSpaceOnUse" x="14" y="8" width="11" height="14" fill="#000"><path fill="#fff" d="M14 8h11v14H14z"/><path d="M19.892 9c.674.16 1.323.376 1.887.838 1.234 1.012 1.897 2.388 2.13 4.017.273 1.919-.052 3.71-1.152 5.271-1.765 2.504-4.744 2.494-6.52-.002-1.749-2.456-1.63-6.324.27-8.595.668-.798 1.473-1.327 2.47-1.474.046-.006.088-.036.132-.055h.783zm3.126 6.069c-.027-1.146-.244-2.165-.762-3.096-1.244-2.238-3.614-2.52-5.11-.605-1.578 2.018-1.533 5.433.098 7.397 1.22 1.47 3.044 1.55 4.352.17 1.012-1.072 1.375-2.439 1.422-3.866z"/></mask><path d="M19.892 9c.674.16 1.323.376 1.887.838 1.234 1.012 1.897 2.388 2.13 4.017.273 1.919-.052 3.71-1.152 5.271-1.765 2.504-4.744 2.494-6.52-.002-1.749-2.456-1.63-6.324.27-8.595.668-.798 1.473-1.327 2.47-1.474.046-.006.088-.036.132-.055h.783zm3.126 6.069c-.027-1.146-.244-2.165-.762-3.096-1.244-2.238-3.614-2.52-5.11-.605-1.578 2.018-1.533 5.433.098 7.397 1.22 1.47 3.044 1.55 4.352.17 1.012-1.072 1.375-2.439 1.422-3.866z" fill="#fff"/><path d="M19.892 9c.674.16 1.323.376 1.887.838 1.234 1.012 1.897 2.388 2.13 4.017.273 1.919-.052 3.71-1.152 5.271-1.765 2.504-4.744 2.494-6.52-.002-1.749-2.456-1.63-6.324.27-8.595.668-.798 1.473-1.327 2.47-1.474.046-.006.088-.036.132-.055h.783zm3.126 6.069c-.027-1.146-.244-2.165-.762-3.096-1.244-2.238-3.614-2.52-5.11-.605-1.578 2.018-1.533 5.433.098 7.397 1.22 1.47 3.044 1.55 4.352.17 1.012-1.072 1.375-2.439 1.422-3.866z" stroke="#fff" stroke-width=".4" mask="url(#path-7-outside-2)"/></g></g><defs><clipPath id="clip0"><path fill="#fff" transform="translate(-1862 -35)" d="M0 0h1920v937H0z"/></clipPath><pattern id="pattern0" patternContentUnits="objectBoundingBox" width="1" height="1"><use xlink:href="#image0" transform="scale(.00052 .00093)"/></pattern><filter id="filter0_d" x="-1882" y="-55" width="1960" height="146" filterUnits="userSpaceOnUse" color-interpolation-filters="sRGB"><feFlood flood-opacity="0" result="BackgroundImageFix"/><feColorMatrix in="SourceAlpha" values="0 0 0 0 0 0 0 0 0 0 0 0 0 0 0 0 0 0 127 0"/><feOffset/><feGaussianBlur stdDeviation="10"/><feColorMatrix values="0 0 0 0 0 0 0 0 0 0 0 0 0 0 0 0 0 0 0.2 0"/><feBlend in2="BackgroundImageFix" result="effect1_dropShadow"/><feBlend in="SourceGraphic" in2="effect1_dropShadow" result="shape"/></filter></defs></svg>