<?xml version="1.0" encoding="utf-8"?><svg viewBox="0 0 44.56 44.56" xmlns="http://www.w3.org/2000/svg" xmlns:xlink="http://www.w3.org/1999/xlink"><style>:root>svg{display:none}:root>svg:target{display:block}</style><svg viewBox="0 0 44.56 44.56" id="icons--check-mark" xmlns="http://www.w3.org/2000/svg"><path d="M23.297 38.74a6.563 6.563 0 01-10.16.499L1.308 26.112a5.083 5.083 0 117.551-6.805l8.369 9.288a.617.617 0 00.956-.047L35.386 5.217a5.083 5.083 0 118.181 6.032L23.297 38.74z"/></svg><svg viewBox="0 0 19 19" id="icons--pencil" xmlns="http://www.w3.org/2000/svg"><path fill-rule="evenodd" d="M9.769 3.824c.301.226.603.528.904.829C8.94 6.386 7.207 8.043 5.55 9.776l-2.336 2.336c-.226.226-.377.452-.452.678-.301.829-.528 1.733-.754 2.562-.226.678.377 1.205 1.055.98.83-.227 1.658-.453 2.411-.754.302-.15.603-.377.83-.603l6.78-6.78c.15-.152.377-.378.527-.528.302.376.603.678.905 1.055 0 0-.151.15-.226.3-2.487 2.412-4.898 4.898-7.384 7.31-.226.225-.452.376-.678.451-1.658.528-3.39 1.055-5.124 1.507-.301.076-.753.076-.98-.15-.15-.076-.15-.528-.075-.83.453-1.732.98-3.39 1.507-5.123.076-.226.226-.452.377-.678 2.562-2.637 5.124-5.274 7.61-7.986.075.15.15.226.226.301z"/><path fill-rule="evenodd" d="M4.871 14.598c0-.828-.452-1.13-1.055-1.13 2.562-2.561 5.2-5.198 7.76-7.76.302.301.679.753 1.056 1.13a376.793 376.793 0 00-7.76 7.76zm12.357-8.739l-4.671-4.672C13.46-.244 14.59-.395 15.797.81c.527.528.98 1.055 1.507 1.507 1.507 1.432 1.431 2.185-.076 3.542zm-6.63-3.014c.301-.302.678-.603.98-.904 1.657 1.657 3.239 3.315 4.896 4.972-.3.226-.602.603-.979.905-1.582-1.658-3.24-3.316-4.897-4.973z"/></svg><svg viewBox="0 0 24 24" id="icons--search" xmlns="http://www.w3.org/2000/svg"><mask id="ca" maskUnits="userSpaceOnUse" x="-1" y="-1" width="25" height="25"><path d="M-1-1h25v25H-1z"/><path fill-rule="evenodd" d="M21.912 19.957c.585.588.557 1.564-.029 2.151-.519.521-1.35.491-1.854-.044-.686-.727-1.346-1.455-2.07-2.183-.653-.656-1.255-1.313-1.87-1.97-.637-.68-1.657-.78-2.504-.392-4.82 2.21-8.872.023-10.877-2.706C.123 11.435.51 6.627 3.612 3.508 6.714.52 11.367.13 14.857 2.728c3.398 2.474 4.353 6.442 2.577 10.84-.336.832-.186 1.8.46 2.421a281.812 281.812 0 014.018 3.968zM16.538 9.746c0-3.769-2.973-6.888-6.722-6.888-3.877 0-6.979 2.99-6.979 6.888a6.83 6.83 0 006.85 6.887c3.878 0 6.85-2.99 6.85-6.887z"/></mask><path fill-rule="evenodd" d="M21.912 19.957c.585.588.557 1.564-.029 2.151-.519.521-1.35.491-1.854-.044-.686-.727-1.346-1.455-2.07-2.183-.653-.656-1.255-1.313-1.87-1.97-.637-.68-1.657-.78-2.504-.392-4.82 2.21-8.872.023-10.877-2.706C.123 11.435.51 6.627 3.612 3.508 6.714.52 11.367.13 14.857 2.728c3.398 2.474 4.353 6.442 2.577 10.84-.336.832-.186 1.8.46 2.421a281.812 281.812 0 014.018 3.968zM16.538 9.746c0-3.769-2.973-6.888-6.722-6.888-3.877 0-6.979 2.99-6.979 6.888a6.83 6.83 0 006.85 6.887c3.878 0 6.85-2.99 6.85-6.887z"/><path d="M21.912 19.957c.585.588.557 1.564-.029 2.151-.519.521-1.35.491-1.854-.044-.686-.727-1.346-1.455-2.07-2.183-.653-.656-1.255-1.313-1.87-1.97-.637-.68-1.657-.78-2.504-.392-4.82 2.21-8.872.023-10.877-2.706C.123 11.435.51 6.627 3.612 3.508 6.714.52 11.367.13 14.857 2.728c3.398 2.474 4.353 6.442 2.577 10.84-.336.832-.186 1.8.46 2.421a281.812 281.812 0 014.018 3.968zM16.538 9.746c0-3.769-2.973-6.888-6.722-6.888-3.877 0-6.979 2.99-6.979 6.888a6.83 6.83 0 006.85 6.887c3.878 0 6.85-2.99 6.85-6.887z" mask="url(#ca)"/></svg><svg viewBox="0 0 30 17" id="icons--send-mail" xmlns="http://www.w3.org/2000/svg"><path fill-rule="evenodd" d="M30 11.637c-.322.43-.643.912-1.018 1.287l-3.375 3.379c-.429.429-.857.858-1.5.59-.536-.215-.536-.805-.536-1.34 0-.108 0-.162-.053-.484-.697 1.341-1.822 1.395-3 1.395-5.947 0-11.893-.054-17.84 0-1.339 0-2.25-.483-2.732-1.716V1.77C.643.322 1.071 0 2.678 0h18.536c1.66 0 2.464.804 2.518 2.467v3.218c.857-.43 1.179-.376 1.821.268l3.858 3.86c.267.269.428.644.642.966-.053.322-.053.59-.053.858zM11.893 1.073H2.625c-.214 0-.482-.054-.59.053-.32.215-.642.483-.857.805-.053.107.268.536.483.697 3.214 2.091 6.428 4.13 9.642 6.22.429.269.697.269 1.125 0 3.215-2.09 6.483-4.129 9.697-6.22.59-.376.59-.912 0-1.287a1.805 1.805 0 00-.91-.268h-9.322zM22.5 14.587c-1.232 0-2.357-.054-3.429 0-2.143.107-2.893-.43-2.785-2.842.053-1.77 0-1.77-1.5-2.628-.161-.108-.483-.108-.697 0-.59.321-1.125.697-1.714 1.072-.375.268-.643.268-1.018 0-.59-.375-1.125-.75-1.768-1.126a.58.58 0 00-.59 0 367.774 367.774 0 00-7.606 4.88c-.161.107-.268.483-.215.644.215.643.75.75 1.34.75h18.75c.535 0 .964-.107 1.232-.75zm2.196-7.884v1.341c0 .75-.107.912-.91.912h-5.411c-.857 0-1.018.16-1.018 1.072v2.414c0 .858.16 1.072 1.071 1.072h5.411c.804 0 .857.107.857.912v1.287l3.268-3.271c1.179-1.18 1.179-1.18 0-2.36-1.018-1.073-2.09-2.145-3.268-3.379zM8.25 8.205C5.893 6.65 3.536 5.202 1.178 3.647v9.116C3.536 11.208 5.893 9.76 8.25 8.205zm8.196.644c.429-.805 1.179-1.02 1.982-.966.536.054 1.125 0 1.661 0h2.41V3.7c-2.41 1.556-4.713 3.003-7.07 4.505.374.215.642.375 1.017.644z"/><defs><clipPath id="dclip0"><path d="M0 0h30v17H0z"/></clipPath></defs></svg><svg viewBox="0 0 38 38" id="icons--user" xmlns="http://www.w3.org/2000/svg"><path d="M0 0h38v38H0z"/><path d="M-1862-138H58V942h-1920z"/><path d="M-1862-138H58V942h-1920z"/><path d="M-1862-34.5H58v936h-1920z"/><path fill-opacity=".8" d="M-1862-35H58v936h-1920z"/><g filter="url(#efilter0_d)"><path d="M-1862-35H58V71h-1920z"/><rect width="38" height="38" rx="10"/><mask id="ea" maskUnits="userSpaceOnUse" x="11" y="20" width="17" height="8"><path d="M11 20h17v8H11z"/><path d="M12 25.003c.155-.515.246-1.063.476-1.535.758-1.557 1.98-2.386 3.628-2.464.366-.018.547.134.57.44.022.318-.152.514-.526.538-1.365.087-2.353.785-2.924 2.107-.16.367-.229.79-.275 1.199-.058.525.129.712.622.712 3.176.002 6.351.002 9.526.002.789 0 1.577.001 2.365-.002.45-.002.615-.192.6-.678-.054-1.706-1.388-3.192-2.977-3.32a3.34 3.34 0 01-.265-.022c-.346-.043-.515-.229-.492-.537.022-.295.198-.442.535-.443 1.839-.01 3.561 1.448 4.001 3.39.047.204.091.409.136.613v.713c-.159.685-.563 1.11-1.2 1.284H13.2c-.637-.174-1.04-.599-1.2-1.284v-.713z"/></mask><path d="M12 25.003c.155-.515.246-1.063.476-1.535.758-1.557 1.98-2.386 3.628-2.464.366-.018.547.134.57.44.022.318-.152.514-.526.538-1.365.087-2.353.785-2.924 2.107-.16.367-.229.79-.275 1.199-.058.525.129.712.622.712 3.176.002 6.351.002 9.526.002.789 0 1.577.001 2.365-.002.45-.002.615-.192.6-.678-.054-1.706-1.388-3.192-2.977-3.32a3.34 3.34 0 01-.265-.022c-.346-.043-.515-.229-.492-.537.022-.295.198-.442.535-.443 1.839-.01 3.561 1.448 4.001 3.39.047.204.091.409.136.613v.713c-.159.685-.563 1.11-1.2 1.284H13.2c-.637-.174-1.04-.599-1.2-1.284v-.713z"/><path d="M12 25.003c.155-.515.246-1.063.476-1.535.758-1.557 1.98-2.386 3.628-2.464.366-.018.547.134.57.44.022.318-.152.514-.526.538-1.365.087-2.353.785-2.924 2.107-.16.367-.229.79-.275 1.199-.058.525.129.712.622.712 3.176.002 6.351.002 9.526.002.789 0 1.577.001 2.365-.002.45-.002.615-.192.6-.678-.054-1.706-1.388-3.192-2.977-3.32a3.34 3.34 0 01-.265-.022c-.346-.043-.515-.229-.492-.537.022-.295.198-.442.535-.443 1.839-.01 3.561 1.448 4.001 3.39.047.204.091.409.136.613v.713c-.159.685-.563 1.11-1.2 1.284H13.2c-.637-.174-1.04-.599-1.2-1.284v-.713z" mask="url(#ea)"/><mask id="eb" maskUnits="userSpaceOnUse" x="14" y="8" width="11" height="14"><path d="M14 8h11v14H14z"/><path d="M19.892 9c.674.16 1.323.376 1.887.838 1.234 1.012 1.897 2.388 2.13 4.017.273 1.919-.052 3.71-1.152 5.271-1.765 2.504-4.744 2.494-6.52-.002-1.749-2.456-1.63-6.324.27-8.595.668-.798 1.473-1.327 2.47-1.474.046-.006.088-.036.132-.055h.783zm3.126 6.069c-.027-1.146-.244-2.165-.762-3.096-1.244-2.238-3.614-2.52-5.11-.605-1.578 2.018-1.533 5.433.098 7.397 1.22 1.47 3.044 1.55 4.352.17 1.012-1.072 1.375-2.439 1.422-3.866z"/></mask><path d="M19.892 9c.674.16 1.323.376 1.887.838 1.234 1.012 1.897 2.388 2.13 4.017.273 1.919-.052 3.71-1.152 5.271-1.765 2.504-4.744 2.494-6.52-.002-1.749-2.456-1.63-6.324.27-8.595.668-.798 1.473-1.327 2.47-1.474.046-.006.088-.036.132-.055h.783zm3.126 6.069c-.027-1.146-.244-2.165-.762-3.096-1.244-2.238-3.614-2.52-5.11-.605-1.578 2.018-1.533 5.433.098 7.397 1.22 1.47 3.044 1.55 4.352.17 1.012-1.072 1.375-2.439 1.422-3.866z"/><path d="M19.892 9c.674.16 1.323.376 1.887.838 1.234 1.012 1.897 2.388 2.13 4.017.273 1.919-.052 3.71-1.152 5.271-1.765 2.504-4.744 2.494-6.52-.002-1.749-2.456-1.63-6.324.27-8.595.668-.798 1.473-1.327 2.47-1.474.046-.006.088-.036.132-.055h.783zm3.126 6.069c-.027-1.146-.244-2.165-.762-3.096-1.244-2.238-3.614-2.52-5.11-.605-1.578 2.018-1.533 5.433.098 7.397 1.22 1.47 3.044 1.55 4.352.17 1.012-1.072 1.375-2.439 1.422-3.866z" mask="url(#eb)"/></g><defs><clipPath id="eclip0"><path transform="translate(-1862 -35)" d="M0 0h1920v937H0z"/></clipPath><pattern id="epattern0" patternContentUnits="objectBoundingBox" width="1" height="1"><use xmlns:xlink="http://www.w3.org/1999/xlink" xlink:href="#image0" transform="scale(.00052 .00093)"/></pattern><filter id="efilter0_d" x="-1882" y="-55" width="1960" height="146" filterUnits="userSpaceOnUse" color-interpolation-filters="sRGB"><feFlood flood-opacity="0" result="BackgroundImageFix"/><feColorMatrix in="SourceAlpha" values="0 0 0 0 0 0 0 0 0 0 0 0 0 0 0 0 0 0 127 0"/><feOffset/><feGaussianBlur stdDeviation="10"/><feColorMatrix values="0 0 0 0 0 0 0 0 0 0 0 0 0 0 0 0 0 0 0.2 0"/><feBlend in2="BackgroundImageFix" result="effect1_dropShadow"/><feBlend in="SourceGraphic" in2="effect1_dropShadow" result="shape"/></filter></defs></svg></svg>