<svg width="24" height="24" viewBox="0 0 24 24" fill="none" xmlns="http://www.w3.org/2000/svg">
<mask id="path-1-outside-1" maskUnits="userSpaceOnUse" x="-1" y="-1" width="25" height="25" fill="black">
<rect fill="white" x="-1" y="-1" width="25" height="25"/>
<path fill-rule="evenodd" clip-rule="evenodd" d="M21.9118 19.9574C22.4975 20.5452 22.469 21.5206 21.8833 22.1085C21.3644 22.6295 20.5335 22.5994 20.0292 22.0642C19.3434 21.3366 18.683 20.6089 17.9592 19.8813C17.3061 19.2246 16.7045 18.5679 16.0893 17.9112C15.4521 17.2311 14.4321 17.1313 13.5849 17.5195C8.76503 19.7282 4.71335 17.5415 2.70774 14.8134C0.122741 11.4348 0.510492 6.62681 3.61249 3.50811C6.71449 0.519352 11.3675 0.129514 14.8572 2.72843C18.2547 5.20194 19.2098 9.17014 17.4337 13.5685C17.0981 14.3998 17.2476 15.3674 17.8934 15.9892C19.2329 17.2789 20.5723 18.6134 21.9118 19.9574ZM16.5375 9.74551C16.5375 5.97708 13.5647 2.85838 9.8165 2.85838C5.93899 2.85838 2.83699 5.84714 2.83699 9.74551C2.83699 13.6439 5.93899 16.6326 9.68725 16.6326C13.5647 16.6326 16.5375 13.6439 16.5375 9.74551Z"/>
</mask>
<path fill-rule="evenodd" clip-rule="evenodd" d="M21.9118 19.9574C22.4975 20.5452 22.469 21.5206 21.8833 22.1085C21.3644 22.6295 20.5335 22.5994 20.0292 22.0642C19.3434 21.3366 18.683 20.6089 17.9592 19.8813C17.3061 19.2246 16.7045 18.5679 16.0893 17.9112C15.4521 17.2311 14.4321 17.1313 13.5849 17.5195C8.76503 19.7282 4.71335 17.5415 2.70774 14.8134C0.122741 11.4348 0.510492 6.62681 3.61249 3.50811C6.71449 0.519352 11.3675 0.129514 14.8572 2.72843C18.2547 5.20194 19.2098 9.17014 17.4337 13.5685C17.0981 14.3998 17.2476 15.3674 17.8934 15.9892C19.2329 17.2789 20.5723 18.6134 21.9118 19.9574ZM16.5375 9.74551C16.5375 5.97708 13.5647 2.85838 9.8165 2.85838C5.93899 2.85838 2.83699 5.84714 2.83699 9.74551C2.83699 13.6439 5.93899 16.6326 9.68725 16.6326C13.5647 16.6326 16.5375 13.6439 16.5375 9.74551Z" fill="#1D4076"/>
<path fill-rule="evenodd" clip-rule="evenodd" d="M21.9118 19.9574C22.4975 20.5452 22.469 21.5206 21.8833 22.1085C21.3644 22.6295 20.5335 22.5994 20.0292 22.0642C19.3434 21.3366 18.683 20.6089 17.9592 19.8813C17.3061 19.2246 16.7045 18.5679 16.0893 17.9112C15.4521 17.2311 14.4321 17.1313 13.5849 17.5195C8.76503 19.7282 4.71335 17.5415 2.70774 14.8134C0.122741 11.4348 0.510492 6.62681 3.61249 3.50811C6.71449 0.519352 11.3675 0.129514 14.8572 2.72843C18.2547 5.20194 19.2098 9.17014 17.4337 13.5685C17.0981 14.3998 17.2476 15.3674 17.8934 15.9892C19.2329 17.2789 20.5723 18.6134 21.9118 19.9574ZM16.5375 9.74551C16.5375 5.97708 13.5647 2.85838 9.8165 2.85838C5.93899 2.85838 2.83699 5.84714 2.83699 9.74551C2.83699 13.6439 5.93899 16.6326 9.68725 16.6326C13.5647 16.6326 16.5375 13.6439 16.5375 9.74551Z" stroke="#1D4076" stroke-width="2" mask="url(#path-1-outside-1)"/>
</svg>
