<svg width="38" height="38" viewBox="0 0 38 38" fill="none"
	xmlns="http://www.w3.org/2000/svg"
	xmlns:xlink="http://www.w3.org/1999/xlink">
	<rect width="38" height="38" fill="#E5E5E5"/>
	<rect width="1920" height="1080" transform="translate(-1862 -138)" fill="white"/>
	<rect x="-1862" y="-138" width="1920" height="1080" fill="url(#pattern0)"/>
	<rect x="-1862" y="-34.5" width="1920" height="936" fill="#5F5F5F"/>
	<g clip-path="url(#clip0)">
		<rect x="-1862" y="-35" width="1920" height="936" fill="#21325E" fill-opacity="0.8"/>
		<g filter="url(#filter0_d)">
			<rect x="-1862" y="-35" width="1920" height="106" fill="white"/>
			<rect width="38" height="38" rx="10" fill="#009C41"/>
			<mask id="path-6-outside-1" maskUnits="userSpaceOnUse" x="11" y="20" width="17" height="8" fill="black">
				<rect fill="white" x="11" y="20" width="17" height="8"/>
				<path d="M12.0008 25.0032C12.1553 24.4882 12.2461 23.94 12.4756 23.4676C13.2338 21.9114 14.4564 21.0817 16.104 21.0036C16.4704 20.9857 16.6505 21.1379 16.6735 21.4431C16.6963 21.7622 16.5224 21.9579 16.1477 21.9822C14.7833 22.0691 13.7948 22.7665 13.2237 24.0886C13.0646 24.4561 12.9952 24.8798 12.9494 25.2875C12.8907 25.813 13.0777 26.0004 13.5712 26.0004C16.7465 26.0015 19.922 26.0015 23.0973 26.0015C23.886 26.0015 24.6742 26.0031 25.4624 26.0004C25.9114 25.9976 26.0772 25.808 26.0615 25.3221C26.0079 23.6162 24.6737 22.1297 23.0847 22.0027C22.9962 21.9972 22.9077 21.9919 22.8197 21.9795C22.4745 21.9371 22.3053 21.7514 22.3283 21.4431C22.35 21.1484 22.5265 21.0012 22.8634 21.0001C24.7019 20.9901 26.424 22.4483 26.8644 24.3897C26.9107 24.5945 26.9552 24.7987 27 25.0032C27 25.2404 27 25.479 27 25.7156C26.8411 26.4011 26.4374 26.8256 25.8001 27C21.6001 27 17.4001 27 13.2001 27C12.5626 26.8256 12.1599 26.4011 12 25.7156C12.0008 25.479 12.0008 25.2413 12.0008 25.0032Z"/>
			</mask>
			<path d="M12.0008 25.0032C12.1553 24.4882 12.2461 23.94 12.4756 23.4676C13.2338 21.9114 14.4564 21.0817 16.104 21.0036C16.4704 20.9857 16.6505 21.1379 16.6735 21.4431C16.6963 21.7622 16.5224 21.9579 16.1477 21.9822C14.7833 22.0691 13.7948 22.7665 13.2237 24.0886C13.0646 24.4561 12.9952 24.8798 12.9494 25.2875C12.8907 25.813 13.0777 26.0004 13.5712 26.0004C16.7465 26.0015 19.922 26.0015 23.0973 26.0015C23.886 26.0015 24.6742 26.0031 25.4624 26.0004C25.9114 25.9976 26.0772 25.808 26.0615 25.3221C26.0079 23.6162 24.6737 22.1297 23.0847 22.0027C22.9962 21.9972 22.9077 21.9919 22.8197 21.9795C22.4745 21.9371 22.3053 21.7514 22.3283 21.4431C22.35 21.1484 22.5265 21.0012 22.8634 21.0001C24.7019 20.9901 26.424 22.4483 26.8644 24.3897C26.9107 24.5945 26.9552 24.7987 27 25.0032C27 25.2404 27 25.479 27 25.7156C26.8411 26.4011 26.4374 26.8256 25.8001 27C21.6001 27 17.4001 27 13.2001 27C12.5626 26.8256 12.1599 26.4011 12 25.7156C12.0008 25.479 12.0008 25.2413 12.0008 25.0032Z" fill="white"/>
			<path d="M12.0008 25.0032C12.1553 24.4882 12.2461 23.94 12.4756 23.4676C13.2338 21.9114 14.4564 21.0817 16.104 21.0036C16.4704 20.9857 16.6505 21.1379 16.6735 21.4431C16.6963 21.7622 16.5224 21.9579 16.1477 21.9822C14.7833 22.0691 13.7948 22.7665 13.2237 24.0886C13.0646 24.4561 12.9952 24.8798 12.9494 25.2875C12.8907 25.813 13.0777 26.0004 13.5712 26.0004C16.7465 26.0015 19.922 26.0015 23.0973 26.0015C23.886 26.0015 24.6742 26.0031 25.4624 26.0004C25.9114 25.9976 26.0772 25.808 26.0615 25.3221C26.0079 23.6162 24.6737 22.1297 23.0847 22.0027C22.9962 21.9972 22.9077 21.9919 22.8197 21.9795C22.4745 21.9371 22.3053 21.7514 22.3283 21.4431C22.35 21.1484 22.5265 21.0012 22.8634 21.0001C24.7019 20.9901 26.424 22.4483 26.8644 24.3897C26.9107 24.5945 26.9552 24.7987 27 25.0032C27 25.2404 27 25.479 27 25.7156C26.8411 26.4011 26.4374 26.8256 25.8001 27C21.6001 27 17.4001 27 13.2001 27C12.5626 26.8256 12.1599 26.4011 12 25.7156C12.0008 25.479 12.0008 25.2413 12.0008 25.0032Z" stroke="white" stroke-width="0.4" mask="url(#path-6-outside-1)"/>
			<mask id="path-7-outside-2" maskUnits="userSpaceOnUse" x="14" y="8" width="11" height="14" fill="black">
				<rect fill="white" x="14" y="8" width="11" height="14"/>
				<path d="M19.892 9C20.5655 9.16 21.2151 9.37605 21.7789 9.83797C23.0128 10.8498 23.6758 12.2259 23.9083 13.8551C24.1816 15.7736 23.8572 17.565 22.7565 19.1264C20.9917 21.6298 18.013 21.6201 16.2371 19.124C14.4881 16.6676 14.6075 12.7996 16.5072 10.5292C17.1747 9.7313 17.9801 9.20249 18.9779 9.05544C19.023 9.04881 19.0647 9.01868 19.1086 9C19.369 9 19.6308 9 19.892 9ZM23.0177 15.0685C22.9915 13.9229 22.7737 12.9042 22.256 11.9734C21.0119 9.73522 18.6421 9.45228 17.1459 11.3681C15.568 13.386 15.6133 16.8011 17.2435 18.7654C18.4644 20.235 20.288 20.3154 21.5957 18.9342C22.6081 17.8627 22.9707 16.4962 23.0177 15.0685Z"/>
			</mask>
			<path d="M19.892 9C20.5655 9.16 21.2151 9.37605 21.7789 9.83797C23.0128 10.8498 23.6758 12.2259 23.9083 13.8551C24.1816 15.7736 23.8572 17.565 22.7565 19.1264C20.9917 21.6298 18.013 21.6201 16.2371 19.124C14.4881 16.6676 14.6075 12.7996 16.5072 10.5292C17.1747 9.7313 17.9801 9.20249 18.9779 9.05544C19.023 9.04881 19.0647 9.01868 19.1086 9C19.369 9 19.6308 9 19.892 9ZM23.0177 15.0685C22.9915 13.9229 22.7737 12.9042 22.256 11.9734C21.0119 9.73522 18.6421 9.45228 17.1459 11.3681C15.568 13.386 15.6133 16.8011 17.2435 18.7654C18.4644 20.235 20.288 20.3154 21.5957 18.9342C22.6081 17.8627 22.9707 16.4962 23.0177 15.0685Z" fill="white"/>
			<path d="M19.892 9C20.5655 9.16 21.2151 9.37605 21.7789 9.83797C23.0128 10.8498 23.6758 12.2259 23.9083 13.8551C24.1816 15.7736 23.8572 17.565 22.7565 19.1264C20.9917 21.6298 18.013 21.6201 16.2371 19.124C14.4881 16.6676 14.6075 12.7996 16.5072 10.5292C17.1747 9.7313 17.9801 9.20249 18.9779 9.05544C19.023 9.04881 19.0647 9.01868 19.1086 9C19.369 9 19.6308 9 19.892 9ZM23.0177 15.0685C22.9915 13.9229 22.7737 12.9042 22.256 11.9734C21.0119 9.73522 18.6421 9.45228 17.1459 11.3681C15.568 13.386 15.6133 16.8011 17.2435 18.7654C18.4644 20.235 20.288 20.3154 21.5957 18.9342C22.6081 17.8627 22.9707 16.4962 23.0177 15.0685Z" stroke="white" stroke-width="0.4" mask="url(#path-7-outside-2)"/>
		</g>
	</g>
	<defs>
		<pattern id="pattern0" patternContentUnits="objectBoundingBox" width="1" height="1">
			<use xlink:href="#image0" transform="scale(0.000520833 0.000925926)"/>
		</pattern>
		<filter id="filter0_d" x="-1882" y="-55" width="1960" height="146" filterUnits="userSpaceOnUse" color-interpolation-filters="sRGB">
			<feFlood flood-opacity="0" result="BackgroundImageFix"/>
			<feColorMatrix in="SourceAlpha" type="matrix" values="0 0 0 0 0 0 0 0 0 0 0 0 0 0 0 0 0 0 127 0"/>
			<feOffset/>
			<feGaussianBlur stdDeviation="10"/>
			<feColorMatrix type="matrix" values="0 0 0 0 0 0 0 0 0 0 0 0 0 0 0 0 0 0 0.2 0"/>
			<feBlend mode="normal" in2="BackgroundImageFix" result="effect1_dropShadow"/>
			<feBlend mode="normal" in="SourceGraphic" in2="effect1_dropShadow" result="shape"/>
		</filter>
		<clipPath id="clip0">
			<rect width="1920" height="937" fill="white" transform="translate(-1862 -35)"/>
		</clipPath>
	</defs>
</svg>
